<?xml version="1.0" encoding="utf-8"?>
<!-- Generator: Adobe Illustrator 21.0.0, SVG Export Plug-In . SVG Version: 6.00 Build 0)  -->
<svg version="1.1" id="Layer_1" xmlns="http://www.w3.org/2000/svg" xmlns:xlink="http://www.w3.org/1999/xlink" x="0px" y="0px"
	 viewBox="0 0 34.4 39.9" style="enable-background:new 0 0 34.4 39.9;" xml:space="preserve">
<style type="text/css">
	.st0{filter:url(#Adobe_OpacityMaskFilter);}
	.st1{fill:#FFFFFF;}
	.st2{mask:url(#mask-2);fill:#FFFFFF;}
	.st3{fill:#0736A4;}
	.st4{fill:#B3A369;}
</style>
<title>logo</title>
<desc>Created with Sketch.</desc>
<g id="Symbols">
	<g id="Fixed-Header" transform="translate(-130.000000, -11.000000)">
		<g id="Header">
			<g id="logo" transform="translate(130.000000, 11.000000)">
				<g id="_x31__x5F_primary_x5F_logo_x5F_outlined">
					<g id="Group-3">
						<g id="Clip-2">
						</g>
						<defs>
							<filter id="Adobe_OpacityMaskFilter" filterUnits="userSpaceOnUse" x="0" y="0" width="34.4" height="39.9">
								<feColorMatrix  type="matrix" values="1 0 0 0 0  0 1 0 0 0  0 0 1 0 0  0 0 0 1 0"/>
							</filter>
						</defs>
						<mask maskUnits="userSpaceOnUse" x="0" y="0" width="34.4" height="39.9" id="mask-2">
							<g class="st0">
								<polygon id="path-1" class="st1" points="0,39.9 34.4,39.9 34.4,0 0,0 								"/>
							</g>
						</mask>
						<path id="Fill-1" class="st2" d="M9.2,10.5V10h4.4c0.1,0.1,0.3,0.3,0.7,0.6H9.2z M32.2,31.6v-9.1h2.2V12.2H23.9
							c0,0-0.4,0.4-0.8,0.8l-1.7-1.5h3.2V0h-9.7c0,0-0.2,0-0.2,0H5.8c0,0-0.7,0-0.7,0H4.7L0,5v9.5l1.3,1.5H0v11.8h8.7v3.9H6.4v8.3
							h13v-5.7c0.6,0.9,1,1.5,1,1.5s0.5-0.7,1.2-1.7v5.9h13v-8.3H32.2L32.2,31.6z"/>
					</g>
					<path id="Fill-4" class="st3" d="M14.3,9.1c0.1,0.1,0.3,0.3,0.7,0.6h-5V9.1H14.3z M15.7,0.9L15.7,0.9l-9.1,0c0,0-0.7,0-0.7,0
						H5.1L0.8,5.5v8.6c0,0,1.4,1.6,2.2,2.5H0.8V27h8.7v5.3H7.1v6.9h11.4v-6.9h-2V29c1.4,2,3.8,5.3,3.8,5.3s2.7-3.2,4.1-4.9v3h-2.2
						v6.9h11.4v-6.9h-2.2V21.7h2.2V13h-9.4c0,0-0.6,0.8-0.9,1.2c-0.2-0.2-2.5-2.3-3.7-3.4h4.3v-10H15.7L15.7,0.9z"/>
					<path id="Fill-5" class="st4" d="M30.5,33.2V20.8h2.2v-6.9h-8.1l-1.7,2.4V15L18,10.5H9.1V8.2h5.5c0.4,0.4,2,1.7,2,1.7H23V1.7
						h-6.4v1c-0.3-0.3-1.1-1-1.1-1H6.6l-0.7,0H5.4L1.6,5.9v7.9l2.7,3.2h4v1.2l0,0.5c-0.6-0.6-1.2-1.1-1.2-1.1H1.6v8.7H8v-1
						c0.3,0.3,1,1,1,1h1.3v7H8v5.2h9.7v-5.2h-2v-6.9c0.2,0.3,4.7,6.6,4.7,6.6s3.2-3.8,5-5.9v6.2h-2.2v5.2h9.7v-5.2H30.5"/>
					<path id="Fill-6" class="st3" d="M16.6,34.2v3.1H9v-3.1h2.4v-8.1h3.2v8.1H16.6z M11.4,19.8h-2v-1.7h0v-3.2h5.4l1.5,1.5V19
						l-0.7,0.8H11.4z M31.7,34.2v3.1h-7.6v-3.1h2.2V24.1l-6,7.1l-3.4-4.9h1.5l4.4-4.7v-3.5l2.3-3.2h6.5v4.8h-2.2v14.4H31.7
						L31.7,34.2z"/>
					<polyline id="Fill-7" class="st1" points="30.3,17.8 28.1,17.8 28.1,15.8 27.2,15.8 27.2,17.8 25,17.8 25,18.7 27.2,18.7 
						27.2,23.8 28.1,23.8 28.1,18.7 30.3,18.7 30.3,17.8 					"/>
					<polyline id="Fill-8" class="st3" points="18.9,2.8 17.6,2.8 17.6,5.2 15.1,2.8 6.6,2.8 6.6,2.8 5.9,2.8 2.6,6.3 2.6,13.4 
						4.8,15.9 8.4,15.9 8.4,13.8 15.2,13.8 17.3,15.8 17.3,19.4 16.2,20.8 9.2,20.8 6.7,18.5 2.6,18.5 2.6,25.1 7,25.1 7,22.7 
						9.5,25.1 18,25.1 21.8,21 21.8,15.5 17.6,11.6 8,11.6 8,7.2 15,7.2 17,8.9 21.9,8.9 21.9,2.8 18.9,2.8 					"/>
				</g>
			</g>
		</g>
	</g>
</g>
</svg>
